<svg width="110" height="60" viewBox="0 0 110 60" fill="none" xmlns="http://www.w3.org/2000/svg">
<path d="M68.177 9.69748C66.5681 8.05129 64.9023 6.42224 63.2746 4.78668C62.3583 3.86594 61.0404 2.4489 60.0368 1.72206C58.554 0.648257 56.4809 0.0249983 54.6385 0.000541274C52.1137 -0.0265068 49.6845 0.961149 47.8958 2.74185C46.2804 4.32345 44.6738 5.96925 43.0691 7.56846C42.0318 8.68132 40.7477 9.70729 39.8881 10.9596C37.4478 14.5149 37.8124 19.6865 40.8378 22.7701L47.358 29.2952C47.7114 29.6489 48.3283 30.2945 48.7018 30.5796C50.3384 31.8287 52.4171 32.5403 54.4643 32.568C56.7776 32.5991 59.3305 31.7166 60.9855 30.0777C62.3688 28.708 63.7353 27.3193 65.1116 25.947L67.2077 23.8593C68.1332 22.9343 68.9019 22.2562 69.5563 21.1027C70.3707 19.6675 70.8454 18.0482 70.8695 16.399C70.8976 13.8968 69.9289 11.4856 68.177 9.69748ZM49.6085 29.2354C49.0513 28.4716 48.5248 27.7159 48.1056 26.8622C45.9091 22.3884 45.4215 16.8869 46.2029 12.0078C46.8083 8.22789 48.2947 4.07245 51.4858 1.72108C52.564 0.926475 54.1209 0.489702 55.4449 0.723116C57.2548 1.04226 58.4008 2.09547 59.5725 3.40298C64.9675 9.69033 64.8457 25.062 58.1755 30.6493C57.1214 31.5323 55.6425 32.1505 54.2457 32.0201C52.1371 31.8228 50.9515 30.6919 49.6085 29.2354Z" fill="white"/>
<path d="M0.517854 59.1215V56.7972H0.916314V59.1215H0.517854Z" fill="white"/>
<path d="M5.15337 58.6932V56.7972H5.55183V59.1215H5.15337L2.23133 57.2255V59.1215H1.83287V56.7972H2.23133L5.15337 58.6932Z" fill="white"/>
<path d="M6.0305 56.7972H10.0151V57.1292H8.22203V59.1215H7.82357V57.1292H6.0305V56.7972Z" fill="white"/>
<path d="M14.0782 56.7972V57.1292H10.8906V57.7269H13.5669V58.059H10.8906V58.7895H14.0782V59.1215H10.4921V56.7972H14.0782Z" fill="white"/>
<path d="M14.775 59.1215V56.7972H15.1735V58.7895H18.2948V59.1215H14.775Z" fill="white"/>
<path d="M18.7726 59.1215V56.7972H19.1711V58.7895H22.2923V59.1215H18.7726Z" fill="white"/>
<path d="M22.8897 59.1215V56.7972H23.2882V59.1215H22.8897Z" fill="white"/>
<path d="M25.699 58.1984V57.8664H28.2856C28.2856 58.9223 27.8872 59.1879 26.2966 59.1879C24.5434 59.1879 24.1051 58.9422 24.1051 57.9594C24.1051 56.9765 24.5434 56.7308 26.2966 56.7308C27.8141 56.7308 28.2126 56.9034 28.2923 57.5908H27.8938C27.8108 57.1226 27.6282 57.0628 26.2966 57.0628C24.7593 57.0628 24.5036 57.1923 24.5036 57.9594C24.5036 58.7264 24.7593 58.8559 26.2966 58.8559C27.4588 58.8559 27.7975 58.753 27.8706 58.1984H25.699Z" fill="white"/>
<path d="M32.5745 56.7972V57.1292H29.3868V57.7269H32.0631V58.059H29.3868V58.7895H32.5745V59.1215H28.9883V56.7972H32.5745Z" fill="white"/>
<path d="M36.5917 58.6932V56.7972H36.9902V59.1215H36.5917L33.6697 57.2255V59.1215H33.2712V56.7972H33.6697L36.5917 58.6932Z" fill="white"/>
<path d="M41.4767 58.3246H41.8752C41.8088 58.909 41.4236 59.1879 39.9559 59.1879C38.1429 59.1879 37.688 58.9422 37.688 57.9594C37.688 56.9765 38.1429 56.7308 39.9559 56.7308C41.4302 56.7308 41.8154 57.0097 41.8752 57.5941H41.4767C41.4203 57.2521 41.2011 57.0628 39.9559 57.0628C38.3521 57.0628 38.0865 57.1923 38.0865 57.9594C38.0865 58.7264 38.3521 58.8559 39.9559 58.8559C41.2011 58.8559 41.4203 58.6666 41.4767 58.3246Z" fill="white"/>
<path d="M46.1574 56.7972V57.1292H42.9697V57.7269H45.646V58.059H42.9697V58.7895H46.1574V59.1215H42.5712V56.7972H46.1574Z" fill="white"/>
<path d="M49.1657 59.1215V56.7972H49.5642V59.1215H49.1657Z" fill="white"/>
<path d="M53.8013 58.6932V56.7972H54.1997V59.1215H53.8013L50.8792 57.2255V59.1215H50.4808V56.7972H50.8792L53.8013 58.6932Z" fill="white"/>
<path d="M58.6497 56.7972V57.1292H55.3956V57.7269H58.1284V58.059H55.3956V59.1215H54.9972V56.7972H58.6497Z" fill="white"/>
<path d="M62.8128 58.5438C62.9124 58.7762 62.9655 58.816 63.178 58.816V59.1481C62.753 59.1481 62.6069 59.0518 62.4475 58.6733C62.3081 58.3445 62.1487 58.2914 61.3186 58.2914H59.5255V59.1215H59.127V56.7972H61.1857C62.6733 56.7972 63.0452 56.9466 63.0452 57.5443C63.0452 57.8896 62.8792 58.0623 62.3346 58.1387C62.5969 58.2084 62.7231 58.3346 62.8128 58.5438ZM59.5255 57.9594H61.1857C62.4376 57.9594 62.6468 57.8996 62.6468 57.5443C62.6468 57.189 62.4376 57.1292 61.1857 57.1292H59.5255V57.9594Z" fill="white"/>
<path d="M65.9971 56.7972L68.1057 59.1215H67.6175L67.0431 58.4873V58.4906H64.5195V58.4873L63.9451 59.1215H63.457L65.5655 56.7972H65.9971ZM65.7813 57.0927L64.8184 58.1586H66.7442L65.7813 57.0927Z" fill="white"/>
<path d="M72.8595 57.5941H72.461C72.461 57.1392 72.2086 57.0628 70.7011 57.0628C69.2501 57.0628 69.0077 57.1093 69.0077 57.3949C69.0077 57.707 69.26 57.7601 70.7676 57.7601C72.4942 57.7601 72.9259 57.9129 72.9259 58.5238C72.9259 59.0551 72.4809 59.1879 70.7011 59.1879C68.9745 59.1879 68.5428 59.0153 68.5428 58.3246H68.9413C68.9413 58.7795 69.1936 58.8559 70.7011 58.8559C72.2651 58.8559 72.5274 58.8094 72.5274 58.5238C72.5274 58.1553 72.2751 58.0922 70.7676 58.0922C69.0409 58.0922 68.6092 57.9527 68.6092 57.3949C68.6092 56.8636 69.0276 56.7308 70.7011 56.7308C72.4278 56.7308 72.8595 56.9034 72.8595 57.5941Z" fill="white"/>
<path d="M73.364 56.7972H77.3486V57.1292H75.5555V59.1215H75.157V57.1292H73.364V56.7972Z" fill="white"/>
<path d="M81.5113 58.5438C81.611 58.7762 81.6641 58.816 81.8766 58.816V59.1481C81.4516 59.1481 81.3055 59.0518 81.1461 58.6733C81.0066 58.3445 80.8472 58.2914 80.0171 58.2914H78.224V59.1215H77.8256V56.7972H79.8843C81.3719 56.7972 81.7438 56.9466 81.7438 57.5443C81.7438 57.8896 81.5777 58.0623 81.0332 58.1387C81.2955 58.2084 81.4217 58.3346 81.5113 58.5438ZM78.224 57.9594H79.8843C81.1361 57.9594 81.3453 57.8996 81.3453 57.5443C81.3453 57.189 81.1361 57.1292 79.8843 57.1292H78.224V57.9594Z" fill="white"/>
<path d="M86.087 57.9594V56.7972H86.4854V57.9594C86.4854 58.9422 86.0803 59.1879 84.4599 59.1879C82.8395 59.1879 82.4344 58.9422 82.4344 57.9594V56.7972H82.8329V57.9594C82.8329 58.7264 83.0653 58.8559 84.4599 58.8559C85.8545 58.8559 86.087 58.7264 86.087 57.9594Z" fill="white"/>
<path d="M90.9314 58.3246H91.3298C91.2634 58.909 90.8783 59.1879 89.4106 59.1879C87.5976 59.1879 87.1427 58.9422 87.1427 57.9594C87.1427 56.9765 87.5976 56.7308 89.4106 56.7308C90.8849 56.7308 91.2701 57.0097 91.3298 57.5941H90.9314C90.8749 57.2521 90.6558 57.0628 89.4106 57.0628C87.8068 57.0628 87.5411 57.1923 87.5411 57.9594C87.5411 58.7264 87.8068 58.8559 89.4106 58.8559C90.6558 58.8559 90.8749 58.6666 90.9314 58.3246Z" fill="white"/>
<path d="M91.7071 56.7972H95.6917V57.1292H93.8987V59.1215H93.5002V57.1292H91.7071V56.7972Z" fill="white"/>
<path d="M99.7814 57.9594V56.7972H100.18V57.9594C100.18 58.9422 99.7748 59.1879 98.1544 59.1879C96.534 59.1879 96.1289 58.9422 96.1289 57.9594V56.7972H96.5274V57.9594C96.5274 58.7264 96.7598 58.8559 98.1544 58.8559C99.549 58.8559 99.7814 58.7264 99.7814 57.9594Z" fill="white"/>
<path d="M104.623 58.5438C104.722 58.7762 104.775 58.816 104.988 58.816V59.1481C104.563 59.1481 104.417 59.0518 104.257 58.6733C104.118 58.3445 103.958 58.2914 103.128 58.2914H101.335V59.1215H100.937V56.7972H102.995C104.483 56.7972 104.855 56.9466 104.855 57.5443C104.855 57.8896 104.689 58.0623 104.144 58.1387C104.407 58.2084 104.533 58.3346 104.623 58.5438ZM101.335 57.9594H102.995C104.247 57.9594 104.456 57.8996 104.456 57.5443C104.456 57.189 104.247 57.1292 102.995 57.1292H101.335V57.9594Z" fill="white"/>
<path d="M109.172 56.7972V57.1292H105.984V57.7269H108.66V58.059H105.984V58.7895H109.172V59.1215H105.585V56.7972H109.172Z" fill="white"/>
<path d="M107.482 51.3648V42.4142H109.486V53.3869H107.482L92.7871 44.4364V53.3869H90.7832V42.4142H92.7871L107.482 51.3648Z" fill="white"/>
<path d="M83.0433 53.3869V42.4142H85.0471V53.3869H83.0433Z" fill="white"/>
<path d="M65.5295 49.0299V47.4623H78.538C78.538 52.4471 76.5341 53.7011 68.5353 53.7011C59.7183 53.7011 57.514 52.5411 57.514 47.9013C57.514 43.2614 59.7183 42.1014 68.5353 42.1014C76.1667 42.1014 78.1706 42.9165 78.5714 46.1613H76.5675C76.15 43.9511 75.2316 43.669 68.5353 43.669C60.8037 43.669 59.5179 44.2803 59.5179 47.9013C59.5179 51.5222 60.8037 52.1336 68.5353 52.1336C74.3799 52.1336 76.0832 51.6476 76.4506 49.0299H65.5295Z" fill="white"/>
<path d="M51.0259 53.3869V42.4142H53.0297V53.3869H51.0259Z" fill="white"/>
<path d="M46.0405 53.3832L43.8555 53.3869C43.8555 50.7744 41.2579 49.4681 37.3212 49.4681H28.3037V53.3869H26.2999V42.4142H36.6532C44.1343 42.4142 46.0046 43.1196 46.0046 45.9412C46.0046 47.5714 45.1697 48.3865 42.431 48.747C44.2134 49.1918 46.0405 51.7022 46.0405 53.3832ZM28.3037 47.9006H36.6532C42.9487 47.9006 44.0007 47.6184 44.0007 45.9412C44.0007 44.2639 42.9487 43.9818 36.6532 43.9818H28.3037V47.9006Z" fill="white"/>
<path d="M11.0213 53.7011C2.20426 53.7011 0 52.5411 0 47.9013C0 43.2614 2.20426 42.1014 11.0213 42.1014C19.8383 42.1014 22.0426 43.2614 22.0426 47.9013C22.0426 52.5411 19.8383 53.7011 11.0213 53.7011ZM11.0213 52.1336C18.7529 52.1336 20.0387 51.5222 20.0387 47.9013C20.0387 44.2803 18.7529 43.669 11.0213 43.669C3.28969 43.669 2.00387 44.2803 2.00387 47.9013C2.00387 51.5222 3.28969 52.1336 11.0213 52.1336Z" fill="white"/>
</svg>
