<svg width="539" height="85" viewBox="0 0 539 85" fill="none" xmlns="http://www.w3.org/2000/svg">
<path d="M2.54859 83.9991V72.5602H4.50954V83.9991H2.54859Z" fill="white"/>
<path d="M25.3616 81.891V72.5602H27.3225V83.9991H25.3616L10.9812 74.6682V83.9991H9.02025V72.5602H10.9812L25.3616 81.891Z" fill="white"/>
<path d="M29.6782 72.5602H49.2878V74.1943H40.4635V83.9991H38.5025V74.1943H29.6782V72.5602Z" fill="white"/>
<path d="M69.2839 72.5602V74.1943H53.5963V77.1357H66.7673V78.7698H53.5963V82.3649H69.2839V83.9991H51.6353V72.5602H69.2839Z" fill="white"/>
<path d="M72.713 83.9991V72.5602H74.674V82.3649H90.0348V83.9991H72.713Z" fill="white"/>
<path d="M92.3864 83.9991V72.5602H94.3474V82.3649H109.708V83.9991H92.3864Z" fill="white"/>
<path d="M112.648 83.9991V72.5602H114.609V83.9991H112.648Z" fill="white"/>
<path d="M126.473 79.4562V77.8221H139.203C139.203 83.0186 137.242 84.3259 129.415 84.3259C120.787 84.3259 118.63 83.1166 118.63 78.2796C118.63 73.4426 120.787 72.2333 129.415 72.2333C136.883 72.2333 138.844 73.0831 139.236 76.4657H137.275C136.866 74.1616 135.968 73.8675 129.415 73.8675C121.849 73.8675 120.59 74.5048 120.59 78.2796C120.59 82.0544 121.849 82.6918 129.415 82.6918C135.134 82.6918 136.801 82.1852 137.161 79.4562H126.473Z" fill="white"/>
<path d="M160.31 72.5602V74.1943H144.622V77.1357H157.794V78.7698H144.622V82.3649H160.31V83.9991H142.661V72.5602H160.31Z" fill="white"/>
<path d="M180.08 81.891V72.5602H182.041V83.9991H180.08L165.7 74.6682V83.9991H163.739V72.5602H165.7L180.08 81.891Z" fill="white"/>
<path d="M204.121 80.0771H206.082C205.755 82.9532 203.86 84.3259 196.637 84.3259C187.714 84.3259 185.476 83.1166 185.476 78.2796C185.476 73.4426 187.714 72.2333 196.637 72.2333C203.892 72.2333 205.788 73.606 206.082 76.4821H204.121C203.843 74.7989 202.765 73.8675 196.637 73.8675C188.744 73.8675 187.437 74.5048 187.437 78.2796C187.437 82.0544 188.744 82.6918 196.637 82.6918C202.765 82.6918 203.843 81.7603 204.121 80.0771Z" fill="white"/>
<path d="M227.156 72.5602V74.1943H211.469V77.1357H224.64V78.7698H211.469V82.3649H227.156V83.9991H209.508V72.5602H227.156Z" fill="white"/>
<path d="M241.961 83.9991V72.5602H243.922V83.9991H241.961Z" fill="white"/>
<path d="M264.774 81.891V72.5602H266.735V83.9991H264.774L250.394 74.6682V83.9991H248.433V72.5602H250.394L264.774 81.891Z" fill="white"/>
<path d="M288.635 72.5602V74.1943H272.621V77.1357H286.07V78.7698H272.621V83.9991H270.66V72.5602H288.635Z" fill="white"/>
<path d="M309.123 81.1557C309.613 82.2996 309.875 82.4957 310.921 82.4957V84.1298C308.829 84.1298 308.11 83.6559 307.326 81.793C306.639 80.1752 305.855 79.9137 301.77 79.9137H292.945V83.9991H290.984V72.5602H301.116C308.437 72.5602 310.267 73.2955 310.267 76.2369C310.267 77.9364 309.45 78.7862 306.77 79.162C308.061 79.5052 308.682 80.1262 309.123 81.1557ZM292.945 78.2796H301.116C307.277 78.2796 308.306 77.9855 308.306 76.2369C308.306 74.4884 307.277 74.1943 301.116 74.1943H292.945V78.2796Z" fill="white"/>
<path d="M324.794 72.5602L335.171 83.9991H332.769L329.942 80.8779V80.8942H317.523V80.8779L314.696 83.9991H312.293L322.67 72.5602H324.794ZM323.732 74.0145L318.993 79.2601H328.471L323.732 74.0145Z" fill="white"/>
<path d="M358.566 76.4821H356.605C356.605 74.2433 355.363 73.8675 347.944 73.8675C340.803 73.8675 339.61 74.0962 339.61 75.5016C339.61 77.0377 340.852 77.2991 348.271 77.2991C356.769 77.2991 358.893 78.0508 358.893 81.0576C358.893 83.6722 356.703 84.3259 347.944 84.3259C339.447 84.3259 337.323 83.4761 337.323 80.0771H339.284C339.284 82.3159 340.526 82.6918 347.944 82.6918C355.641 82.6918 356.932 82.463 356.932 81.0576C356.932 79.2437 355.69 78.9333 348.271 78.9333C339.774 78.9333 337.649 78.2469 337.649 75.5016C337.649 72.887 339.708 72.2333 347.944 72.2333C356.442 72.2333 358.566 73.0831 358.566 76.4821Z" fill="white"/>
<path d="M361.049 72.5602H380.659V74.1943H371.834V83.9991H369.873V74.1943H361.049V72.5602Z" fill="white"/>
<path d="M401.145 81.1557C401.635 82.2996 401.897 82.4957 402.943 82.4957V84.1298C400.851 84.1298 400.132 83.6559 399.348 81.793C398.661 80.1752 397.877 79.9137 393.792 79.9137H384.967V83.9991H383.006V72.5602H393.138C400.459 72.5602 402.289 73.2955 402.289 76.2369C402.289 77.9364 401.472 78.7862 398.792 79.162C400.083 79.5052 400.704 80.1262 401.145 81.1557ZM384.967 78.2796H393.138C399.299 78.2796 400.328 77.9855 400.328 76.2369C400.328 74.4884 399.299 74.1943 393.138 74.1943H384.967V78.2796Z" fill="white"/>
<path d="M423.663 78.2796V72.5602H425.624V78.2796C425.624 83.1166 423.631 84.3259 415.656 84.3259C407.682 84.3259 405.688 83.1166 405.688 78.2796V72.5602H407.649V78.2796C407.649 82.0544 408.793 82.6918 415.656 82.6918C422.52 82.6918 423.663 82.0544 423.663 78.2796Z" fill="white"/>
<path d="M447.504 80.0771H449.465C449.138 82.9532 447.243 84.3259 440.02 84.3259C431.098 84.3259 428.859 83.1166 428.859 78.2796C428.859 73.4426 431.098 72.2333 440.02 72.2333C447.276 72.2333 449.171 73.606 449.465 76.4821H447.504C447.227 74.7989 446.148 73.8675 440.02 73.8675C432.127 73.8675 430.82 74.5048 430.82 78.2796C430.82 82.0544 432.127 82.6918 440.02 82.6918C446.148 82.6918 447.227 81.7603 447.504 80.0771Z" fill="white"/>
<path d="M451.322 72.5602H470.932V74.1943H462.107V83.9991H460.146V74.1943H451.322V72.5602Z" fill="white"/>
<path d="M491.059 78.2796V72.5602H493.019V78.2796C493.019 83.1166 491.026 84.3259 483.051 84.3259C475.077 84.3259 473.083 83.1166 473.083 78.2796V72.5602H475.044V78.2796C475.044 82.0544 476.188 82.6918 483.051 82.6918C489.915 82.6918 491.059 82.0544 491.059 78.2796Z" fill="white"/>
<path d="M514.883 81.1557C515.373 82.2996 515.635 82.4957 516.681 82.4957V84.1298C514.589 84.1298 513.87 83.6559 513.086 81.793C512.399 80.1752 511.615 79.9137 507.53 79.9137H498.705V83.9991H496.744V72.5602H506.876C514.197 72.5602 516.027 73.2955 516.027 76.2369C516.027 77.9364 515.21 78.7862 512.53 79.162C513.821 79.5052 514.442 80.1262 514.883 81.1557ZM498.705 78.2796H506.876C513.037 78.2796 514.066 77.9855 514.066 76.2369C514.066 74.4884 513.037 74.1943 506.876 74.1943H498.705V78.2796Z" fill="white"/>
<path d="M537.271 72.5602V74.1943H521.583V77.1357H534.754V78.7698H521.583V82.3649H537.271V83.9991H519.622V72.5602H537.271Z" fill="white"/>
<path d="M528.956 45.5901V1.54145H538.818V55.5415H528.956L456.637 11.4929V55.5415H446.775V1.54145H456.637L528.956 45.5901Z" fill="white"/>
<path d="M408.684 55.5415V1.54145H418.546V55.5415H408.684Z" fill="white"/>
<path d="M322.493 34.0972V26.3829H386.512C386.512 50.9144 376.65 57.0858 337.286 57.0858C293.894 57.0858 283.046 51.3772 283.046 28.5429C283.046 5.70858 293.894 0 337.286 0C374.842 0 384.704 4.01143 386.676 19.98H376.815C374.76 9.10287 370.24 7.7143 337.286 7.7143C299.236 7.7143 292.908 10.7229 292.908 28.5429C292.908 46.3629 299.236 49.3715 337.286 49.3715C366.049 49.3715 374.432 46.9801 376.24 34.0972H322.493Z" fill="white"/>
<path d="M251.116 55.5415V1.54145H260.978V55.5415H251.116Z" fill="white"/>
<path d="M226.581 55.5234L215.828 55.5415C215.828 42.6844 203.044 36.2558 183.67 36.2558H139.292V55.5415H129.431V1.54145H180.383C217.2 1.54145 226.404 5.01288 226.404 18.8986C226.404 26.9215 222.295 30.9329 208.818 32.7072C217.589 34.8959 226.581 47.2509 226.581 55.5234ZM139.292 28.5415H180.383C211.365 28.5415 216.543 27.1529 216.543 18.8986C216.543 10.6443 211.365 9.25574 180.383 9.25574H139.292V28.5415Z" fill="white"/>
<path d="M54.2395 57.0858C10.8479 57.0858 0 51.3772 0 28.5429C0 5.70858 10.8479 0 54.2395 0C97.6312 0 108.479 5.70858 108.479 28.5429C108.479 51.3772 97.6312 57.0858 54.2395 57.0858ZM54.2395 49.3715C92.2894 49.3715 98.6173 46.3629 98.6173 28.5429C98.6173 10.7229 92.2894 7.7143 54.2395 7.7143C16.1897 7.7143 9.86174 10.7229 9.86174 28.5429C9.86174 46.3629 16.1897 49.3715 54.2395 49.3715Z" fill="white"/>
</svg>
